<mxfile host="app.diagrams.net" modified="2023-10-20T11:34:13.206Z" agent="Mozilla/5.0 (Windows NT 10.0; Win64; x64) AppleWebKit/537.36 (KHTML, like Gecko) Chrome/118.0.0.0 Safari/537.36" version="22.0.5" etag="l049r66qq-7podg7uNMr" type="github">
  <diagram name="Страница — 1" id="jMpxzQ2-0JT3AB_N7CNl">
    <mxGraphModel>
      <root>
        <mxCell id="0" />
        <mxCell id="1" parent="0" />
      </root>
    </mxGraphModel>
  </diagram>
</mxfile>
